<?xml version="1.0" encoding="utf-8"?>
<!-- Generator: Adobe Illustrator 15.1.0, SVG Export Plug-In . SVG Version: 6.00 Build 0)  -->
<!DOCTYPE svg PUBLIC "-//W3C//DTD SVG 1.1//EN" "http://www.w3.org/Graphics/SVG/1.1/DTD/svg11.dtd">
<svg version="1.1" id="Calque_1" xmlns="http://www.w3.org/2000/svg" xmlns:xlink="http://www.w3.org/1999/xlink" x="0px" y="0px"
	 width="79.441px" height="15.534px" viewBox="0 0 79.441 15.534" enable-background="new 0 0 79.441 15.534" xml:space="preserve">
<g>
	<path d="M25.875,1.738c-0.835-0.354-1.728-0.585-2.524-0.585c-1.161,0-1.742,0.25-1.742,0.698c0,1.284,5.184,0.253,5.184,2.993
		c0,1.134-1.064,2.011-3.198,2.011c-1.265,0-2.254-0.261-3.39-0.877l0.469-1.021c0.995,0.553,1.924,0.799,2.93,0.799
		c1.265,0,1.942-0.365,1.942-0.912c0-1.405-5.186-0.356-5.186-2.924c0-1.107,1.057-1.869,2.967-1.869
		c1.144,0,2.104,0.25,3.023,0.711L25.875,1.738z"/>
	<path d="M31.655,1.116c-1.508,0-2.538,1.021-2.538,2.333c0,1.342,0.985,2.341,2.538,2.341c1.543,0,2.522-1.009,2.522-2.341
		C34.177,2.137,33.198,1.116,31.655,1.116 M31.655,6.889c-2.071,0-3.788-1.379-3.788-3.44c0-2.038,1.717-3.443,3.788-3.443
		c2.082,0,3.771,1.405,3.771,3.443C35.426,5.51,33.737,6.889,31.655,6.889"/>
	<path d="M40.373,6.881c-2.175,0-3.813-1.378-3.813-3.442c0-2.028,1.665-3.434,3.813-3.434c1.284,0,2.202,0.364,3.026,0.971
		L42.756,1.93c-0.598-0.46-1.348-0.797-2.348-0.797c-1.589,0-2.575,1.004-2.575,2.306c0,1.342,0.996,2.316,2.59,2.316
		c0.997,0,1.788-0.323,2.385-0.783l0.645,0.955C42.627,6.534,41.658,6.881,40.373,6.881"/>
</g>
<rect x="44.766" y="0.205" width="1.209" height="6.501"/>
<polygon points="47.758,6.705 47.758,0.204 53.678,0.204 53.678,1.28 48.965,1.28 48.965,2.859 52.629,2.859 52.629,3.932 
	48.965,3.932 48.965,5.632 53.887,5.632 53.887,6.705 "/>
<polygon points="58.385,1.272 58.385,6.705 57.182,6.705 57.182,1.272 54.531,1.272 54.531,0.204 61.033,0.204 61.033,1.272 "/>
<polygon points="62.002,6.705 62.002,0.204 67.924,0.204 67.924,1.28 63.209,1.28 63.209,2.859 66.875,2.859 66.875,3.932 
	63.209,3.932 63.209,5.632 68.131,5.632 68.131,6.705 "/>
<g>
	<path d="M23.922,14.4c0.661,0,1.342-0.148,1.855-0.393v-1.89h1.171v2.522c-0.824,0.556-1.959,0.895-3.078,0.895
		c-2.174,0-3.812-1.377-3.812-3.441c0-2.027,1.664-3.431,3.812-3.431c1.258,0,2.202,0.354,3.027,0.96l-0.641,0.954
		c-0.602-0.459-1.354-0.771-2.354-0.771c-1.586-0.035-2.57,0.987-2.57,2.287C21.333,13.439,22.329,14.4,23.922,14.4"/>
</g>
<polygon points="28.537,15.361 28.537,8.861 34.458,8.861 34.458,9.934 29.74,9.934 29.74,11.514 33.408,11.514 33.408,12.588 
	29.74,12.588 29.74,14.287 34.665,14.287 34.665,15.361 "/>
<g>
	<path d="M37.029,15.361h-1.18v-6.5h1.231l4.238,4.898l0.029-0.01c-0.072-1.23-0.08-2.229-0.08-3.191V8.861h1.178v6.5h-1.221
		L37,10.465l-0.02,0.008c0.047,0.963,0.047,2.645,0.047,3.191v1.697H37.029z"/>
</g>
<polygon points="44.143,15.361 44.143,8.861 50.062,8.861 50.062,9.934 45.346,9.934 45.346,11.514 49.014,11.514 49.014,12.588 
	45.346,12.588 45.346,14.287 50.273,14.287 50.273,15.361 "/>
<g>
	<path d="M55.594,11.887c0.754,0,1.18-0.39,1.18-0.953c0-0.614-0.373-1-1.051-1h-2.971v1.953H55.594z M54.693,12.971h-1.941v2.392
		h-1.205v-6.5h4.178c1.385,0,2.246,0.851,2.246,2.071c0,1.16-0.846,1.854-1.865,2.002l1.936,2.427h-1.51L54.693,12.971z"/>
</g>
<path d="M61.012,12.729h2.504l-1.248-2.637L61.012,12.729z M60.51,13.783l-0.746,1.578h-1.305l3.17-6.5h1.266l3.17,6.5h-1.299
	l-0.748-1.578H60.51z"/>
<polygon points="66.953,15.361 66.953,8.861 68.156,8.861 68.156,14.287 72.498,14.287 72.498,15.361 "/>
<polygon points="73.311,15.361 73.311,8.861 79.234,8.861 79.234,9.934 74.518,9.934 74.518,11.514 78.184,11.514 78.184,12.588 
	74.518,12.588 74.518,14.287 79.441,14.287 79.441,15.361 "/>
<rect fill="#E73137" width="15.536" height="7.923"/>
<rect y="7.768" width="15.536" height="7.767"/>
<rect x="2.715" y="7.295" fill="#FFFFFF" width="10.105" height="0.945"/>
</svg>
